<?xml version="1.0" encoding="utf-8"?>
<!-- Generator: Adobe Illustrator 27.2.0, SVG Export Plug-In . SVG Version: 6.00 Build 0)  -->
<svg version="1.1" id="Layer_1" xmlns="http://www.w3.org/2000/svg" xmlns:xlink="http://www.w3.org/1999/xlink" x="0px" y="0px"
	 viewBox="0 0 171 36" style="enable-background:new 0 0 171 36;" xml:space="preserve">
<style type="text/css">
	.st0{fill-rule:evenodd;clip-rule:evenodd;fill:url(#SVGID_1_);}
	.st1{fill:#FBFBFB;}
</style>
<linearGradient id="SVGID_1_" gradientUnits="userSpaceOnUse" x1="29.0301" y1="33.0467" x2="29.0301" y2="13.0262" gradientTransform="matrix(1 0 0 -1 0 38)">
	<stop  offset="0" style="stop-color:#877EFF"/>
	<stop  offset="0.4615" style="stop-color:#685DFF"/>
	<stop  offset="1" style="stop-color:#3121FF"/>
</linearGradient>
<path class="st0" d="M37.6,15c0,4.7-3.8,8.6-8.6,8.6c-4.7,0-8.6-3.8-8.6-8.6s3.8-8.6,8.6-8.6C33.8,6.4,37.6,10.2,37.6,15z M39,15
	c0,5.5-4.5,10-10,10c-5.5,0-10-4.5-10-10c0-5.5,4.5-10,10-10C34.6,5,39,9.4,39,15z M34.6,10.5c0,0.6-0.5,1-1,1s-1-0.5-1-1
	c0-0.6,0.5-1,1-1S34.6,9.9,34.6,10.5z M26,15.8c0.4,1.7,2.2,2.6,3.8,2.2c1.7-0.4,2.6-2.2,2.2-3.8s-2.2-2.6-3.8-2.2
	C26.6,12.4,25.6,14.1,26,15.8z M24.6,16.1c0.7,2.4,3.2,3.9,5.6,3.2c2.4-0.7,3.9-3.2,3.2-5.6c-0.7-2.4-3.2-3.9-5.6-3.2
	C25.4,11.2,24,13.7,24.6,16.1z"/>
<g>
	<path class="st1" d="M36.4,25.3L36,25.1l-0.4,0.3c0,0,0,0-0.1,0l-0.2,0.1c-1.4,0.9-3.2,1.5-5.1,1.7c-4.9,0.5-8.5-1.9-11.7-4
		l-0.8-0.5c-1.7-1.1-3.2-2-5-2.6c1.4-0.7,2.5-1.9,3.2-3.3c0.9-1.9,1-4.2,0.3-6.1c-0.8-2.1-2.6-3.6-5.1-4.2c-1.2-0.3-2.4-0.3-3.5-0.3
		c-1.2,0-2.5,0-3.7,0c-0.8,0-1.7,0-2.5,0H0l1,1.1c0.4,0.4,0.9,0.9,1.3,1.3c0,0,0,0,0,0l0,18.9c-0.2,0.2-0.4,0.4-0.6,0.6l-1.6,1.5h7
		l-2.1-2c0,0,0,0,0,0c0,0,0,0,0,0l0-0.1l0-6.4c0.3,0,0.6,0,0.9,0c0.9,0,1.9,0,2.7,0c2.3,0.2,4.1,1.4,5.7,2.6l0.2,0.2
		c2.6,1.9,5.5,4.1,8.9,5.2c4.5,1.4,9.9,0.6,13.1-2.1c0.1,0,0.1-0.1,0.2-0.2l0.4-0.5l-0.3-0.5C36.7,25.4,36.6,25.3,36.4,25.3z M5,8.1
		V7.9l0.5,0c1.1,0,2.2,0,3.4,0c2.1,0.1,3.9,1.2,4.6,3c0.3,0.8,0.5,1.6,0.5,2.6c0,1.1-0.1,1.9-0.4,2.6c-0.5,1.6-1.9,3.2-3.8,3.2h0h0
		h0c-1.1,0-2.2,0-3.3,0c-0.5,0-1,0-1.5,0C5,15.6,5,11.9,5,8.1z M36.5,26.4C36.5,26.4,36.5,26.4,36.5,26.4L36.5,26.4
		C36.5,26.4,36.5,26.4,36.5,26.4z"/>
	<path class="st1" d="M52.8,28l-6.5,0c-0.6,0-1.2,0-1.9,0c0-2.8,0-5.6,0-8.3c0-3.1,0-6.2,0-9.4V8.2c0.4-0.3,0.7-0.6,1-1l1.1-1.1
		h-6.9l1.1,1.1c0.3,0.3,0.6,0.6,1,1v19.2l0,0.1c-0.3,0.3-0.7,0.7-1,1l-1.1,1.1l15.7,0c0.1,0,0.2,0,0.3,0c0.3,0,0.4,0,0.6-0.2
		l0.1-0.1l0.9-3.8L56,26.2C55,26.8,53.9,27.3,52.8,28z"/>
	<path class="st1" d="M71.5,28l-6.5,0c-0.6,0-1.2,0-1.9,0c0-2.8,0-5.6,0-8.3c0-3.1,0-6.2,0-9.4V8.2c0.4-0.3,0.7-0.6,1-1l1.1-1.1
		h-6.9l1.1,1.1c0.3,0.3,0.6,0.6,1,1v19.2l0,0.1c-0.3,0.3-0.7,0.7-1,1l-1.1,1.1l15.7,0c0.1,0,0.2,0,0.3,0c0.3,0,0.4,0,0.6-0.2
		l0.1-0.1l0.9-3.8l-1.2,0.7C73.7,26.8,72.6,27.3,71.5,28z"/>
	<path class="st1" d="M92.2,18.3l1.1,1.1c0.3,0.3,0.6,0.6,1,0.9v5.5l-0.1,0c-0.5,0.6-1,1.1-1.6,1.4c-3.3,1.5-7.5,0.7-10-1.8
		c-2.1-2.2-3.1-5.6-2.6-9.2c0.3-2.2,1.1-4.1,2.4-5.5c1.3-1.5,3.2-2.4,5.3-2.7c2-0.2,3.8,0.1,5.3,0.8c0.7,0.3,1.2,0.8,1.8,1.4
		c0.3,0.4,0.7,0.8,0.9,1.3l1.2-0.2V6.7L96,7.1c-0.5,0.2-1,0.4-1.5,0.7l-0.8-0.4C88.6,5,83.2,6.8,80.4,9.7c-4.2,4.4-4.2,12-0.1,16.5
		c2.1,2.2,5.2,3.4,8.3,3.4c1.7,0,3.4-0.3,4.9-1c1-0.4,1.9-1,2.9-1.9c0.1-0.1,0.2-0.1,0.3-0.2l0.3-0.2l0-5.9l2.1-2H92.2z M94.4,25.6
		l0.5,0.4c0,0,0,0,0,0l-0.5-0.2C94.4,25.7,94.4,25.6,94.4,25.6z"/>
	<path class="st1" d="M118.8,28.2c-0.6,0-1.1-0.5-1.6-1.3c-0.4-0.7-0.7-1.4-1-2.1c-0.5-1.2-1-2.4-1.9-3.4c-0.3-0.4-0.7-0.7-1.1-1
		c1.7-0.6,3.1-1.6,3.9-3.1c1.5-2.6,1.3-6.2-0.5-8.4c-1.4-1.7-3.7-2.7-6.2-2.7c-0.6,0-1.1,0-1.7,0c-1.3,0-2.5,0-3.8,0
		c-0.7,0-1.4,0-2.2,0l-1.5,0l1.1,1.1c0.4,0.4,0.9,0.9,1.3,1.3c0,0,0,0,0,0l0,18.9c-0.2,0.2-0.4,0.4-0.7,0.6l-1.5,1.5h7l-2.1-2
		c0,0,0,0,0,0c0,0,0,0,0,0l0-0.1l0-6.4h2.2c0.2,0,0.3,0,0.5,0c0.3,0,0.7,0,1,0c1.6,0.2,2.3,1.8,2.9,3.4c0.2,0.4,0.3,0.8,0.5,1.1
		c0.6,1.2,1.2,2.2,2,3c0.7,0.6,1.6,1.3,2.9,1.3c0.1,0,0.2,0,0.4,0c0.1,0,0.4,0,0.6-0.2l0.2-0.2v-0.8l-0.2-0.2
		C119.4,28.2,119.2,28.1,118.8,28.2z M106.5,8.1V7.9h1.1c0.9,0,1.8,0,2.7,0c2.1,0.1,3.9,1.2,4.6,2.9c0.3,0.7,0.5,1.6,0.5,2.6
		c0,1.1-0.2,2-0.5,2.8c-0.7,1.8-2.4,3-4.4,3.1c-0.4,0-0.8,0-1.2,0c-0.3,0-0.6,0-0.8,0h-2C106.5,15.6,106.5,11.9,106.5,8.1z"/>
	<path class="st1" d="M142.2,27.2L142.2,27.2c-0.1-0.2-0.2-0.5-0.3-0.8l-2.7-6c-2.1-4.6-4.1-9.2-6.2-13.9l-0.1-0.2
		c-0.2-0.2-0.5-0.2-0.7-0.2l-0.4,0.1l-0.1,0.3c-0.2,0.5-0.4,0.9-0.6,1.4c-0.1,0.3-0.3,0.7-0.4,1c-1.6,3.8-3.2,7.7-4.8,11.5l-2.3,5.4
		l-0.5,1.3l-1.1,1.1c0,0-0.1,0.1-0.1,0.1l-1.5,1.1h5.8l-1.6-1.9c0.4-0.9,0.7-1.7,1.1-2.6c0.6-1.4,1.1-2.7,1.7-4h9.2
		c1,2.2,1.9,4.4,3,6.6c-0.2,0.3-0.4,0.6-0.6,0.9l-0.6,1l1.1,0c1.3,0,2.6,0,3.9,0c0,0,0,0,0,0h1.6l-1.7-1.5
		C142.8,27.8,142.5,27.5,142.2,27.2z M128,19.5c0.7-1.6,1.3-3.2,2-4.8c0.6-1.4,1.2-2.9,1.8-4.3c1.3,3,2.7,6,4,9.1h-4
		C130.5,19.5,129.2,19.5,128,19.5z"/>
	<path class="st1" d="M163.9,29.6h7.1l-1.2-1.1c-0.4-0.3-0.7-0.6-1-0.9c0-3.1,0-6.2,0-9.4c0-3,0-6,0-9.1l0-1
		c0.1-0.1,0.3-0.3,0.4-0.4c0.2-0.2,0.4-0.3,0.5-0.5l1.2-1.1h-4.8v0.5c0,0,0,0,0,0c-0.1,0.2-0.2,0.4-0.2,0.5l-0.8,1.9
		c-1.2,2.8-2.3,5.7-3.5,8.5c-1.1,2.6-2.1,5.2-3.2,7.8c-0.5-1.1-1-2.2-1.5-3.4c-0.6-1.2-1.1-2.5-1.7-3.7l-3.8-8.5
		c-0.5-1.1-1-2.2-1.5-3.3c-0.2-0.4-0.6-0.4-1-0.3h-3.5l2,2l0.1,0.1v19l0,0.2l-2.1,2.1h5.8l-2-2c0,0-0.1-0.1-0.2-0.1V11.4l0.2,0.4
		c2.5,5.7,5.2,11.6,7.8,17.3c0.1,0.4,0.5,0.4,0.7,0.4c0.1,0,0.1,0,0.2,0c0.4,0,0.6-0.3,0.8-0.8l0.4-1.1c1.5-3.6,3-7.2,4.5-10.8
		c0.8-2,1.6-4,2.5-6l0,16.6L163.9,29.6z"/>
</g>
</svg>
